<?xml version="1.0" encoding="UTF-8" standalone="no"?>
<!-- Generator: Adobe Illustrator 16.0.4, SVG Export Plug-In . SVG Version: 6.00 Build 0)  -->

<svg
   xmlns:dc="http://purl.org/dc/elements/1.1/"
   xmlns:cc="http://creativecommons.org/ns#"
   xmlns:rdf="http://www.w3.org/1999/02/22-rdf-syntax-ns#"
   xmlns:svg="http://www.w3.org/2000/svg"
   xmlns="http://www.w3.org/2000/svg"
   xmlns:sodipodi="http://sodipodi.sourceforge.net/DTD/sodipodi-0.dtd"
   xmlns:inkscape="http://www.inkscape.org/namespaces/inkscape"
   version="1.1"
   id="Capa_1"
   x="0px"
   y="0px"
   width="40.007px"
   height="40.007px"
   viewBox="0 0 40.007 40.007"
   style="enable-background:new 0 0 40.007 40.007;"
   xml:space="preserve"
   inkscape:version="0.48.4 r9939"
   sodipodi:docname="play43.svg"><metadata
     id="metadata42"><rdf:RDF><cc:Work
         rdf:about=""><dc:format>image/svg+xml</dc:format><dc:type
           rdf:resource="http://purl.org/dc/dcmitype/StillImage" /></cc:Work></rdf:RDF></metadata><defs
     id="defs40" /><sodipodi:namedview
     pagecolor="#ffffff"
     bordercolor="#666666"
     borderopacity="1"
     objecttolerance="10"
     gridtolerance="10"
     guidetolerance="10"
     inkscape:pageopacity="0"
     inkscape:pageshadow="2"
     inkscape:window-width="640"
     inkscape:window-height="480"
     id="namedview38"
     showgrid="false"
     inkscape:zoom="5.8989677"
     inkscape:cx="20.0035"
     inkscape:cy="18.357927"
     inkscape:window-x="75"
     inkscape:window-y="34"
     inkscape:window-maximized="0"
     inkscape:current-layer="_x33_56._Play" /><g
     id="_x33_56._Play"><g
       id="g4"
       style="fill:#ffffff"><path
         d="M37.324,10.004c-5.522-9.566-17.755-12.844-27.32-7.32C0.438,8.206-2.84,20.438,2.684,30.004    c5.522,9.565,17.754,12.843,27.32,7.32C39.569,31.801,42.848,19.569,37.324,10.004z M28.004,33.859    c-7.652,4.419-17.438,1.797-21.856-5.856c-4.419-7.652-1.796-17.438,5.856-21.855c7.652-4.419,17.438-1.797,21.856,5.856    C38.278,19.656,35.656,29.441,28.004,33.859z M27.204,19.191l-10.473-6.108c-0.954-0.557-1.724-0.112-1.719,0.992l0.054,12.124    c0.005,1.104,0.784,1.553,1.741,1l10.393-6C28.156,20.647,28.158,19.748,27.204,19.191z"
         id="path6"
         style="fill:#ffffff" /></g></g><g
     id="g8" /><g
     id="g10" /><g
     id="g12" /><g
     id="g14" /><g
     id="g16" /><g
     id="g18" /><g
     id="g20" /><g
     id="g22" /><g
     id="g24" /><g
     id="g26" /><g
     id="g28" /><g
     id="g30" /><g
     id="g32" /><g
     id="g34" /><g
     id="g36" /></svg>